<svg version="1.1" id="Layer_1" xmlns="http://www.w3.org/2000/svg" xmlns:xlink="http://www.w3.org/1999/xlink" x="0px" y="0px"
	 width="100%" viewBox="0 0 500 500" enable-background="new 0 0 500 500" xml:space="preserve">
<path fill="#000000" opacity="1.000000" stroke="none" 
	d="
M282.000000,501.000000 
	C188.000015,501.000000 94.500046,501.000000 1.000050,501.000000 
	C1.000033,334.333405 1.000033,167.666794 1.000017,1.000140 
	C167.666565,1.000093 334.333130,1.000093 500.999756,1.000046 
	C500.999847,167.666519 500.999847,334.333038 500.999939,500.999786 
	C428.166656,501.000000 355.333344,501.000000 282.000000,501.000000 
M424.983246,111.016998 
	C424.983246,111.016998 425.076782,111.013359 424.877655,110.507172 
	C424.580597,110.312408 424.283569,110.117653 423.995667,110.011841 
	C423.995667,110.011841 424.084625,110.002747 423.961029,109.348549 
	C423.303467,108.528656 422.645874,107.708763 421.846588,106.465645 
	C421.672546,106.200554 421.429199,106.041458 420.900299,105.480789 
	C420.593811,105.292892 420.287354,105.104996 419.985596,105.017021 
	C419.985596,105.017021 420.085541,105.012360 419.897430,104.492180 
	C419.593445,104.299484 419.289459,104.106781 418.986481,104.013481 
	C418.986481,104.013481 419.085876,104.012527 418.896149,103.493111 
	C418.592499,103.299805 418.288849,103.106491 418.016418,103.003571 
	C418.016418,103.003571 418.106812,102.972343 417.987366,102.286270 
	C416.005859,100.158516 414.024353,98.030754 412.010193,95.980469 
	C412.010193,95.980469 412.087677,96.013031 411.901367,95.491211 
	C411.596527,95.300217 411.291718,95.109222 410.992432,95.015038 
	C410.992432,95.015038 411.089233,95.009537 410.923218,94.473541 
	C410.612091,94.287071 410.300964,94.100601 409.989349,94.008942 
	C409.989349,94.008942 410.084137,94.009460 409.914581,93.478065 
	C409.605988,93.290154 409.297424,93.102234 408.990021,93.011154 
	C408.990021,93.011154 409.086853,93.010033 408.915649,92.478432 
	C408.606598,92.290443 408.297577,92.102455 407.983368,92.011330 
	C407.983368,92.011330 408.080231,92.016525 407.916473,91.476929 
	C407.618073,91.258728 407.319672,91.040520 406.708038,90.237648 
	C402.428864,86.639915 398.121307,83.075188 393.883148,79.429756 
	C391.920227,77.741341 390.310120,75.557457 388.166748,74.178482 
	C377.596863,67.378166 367.129333,60.366787 356.179810,54.224789 
	C347.274017,49.229206 337.982574,44.708065 328.435059,41.109650 
	C299.965363,30.379530 270.428528,26.106962 239.094803,28.029528 
	C228.703995,29.340963 218.313171,30.652397 207.999084,32.018383 
	C207.999084,32.018383 208.053635,31.941677 207.260178,31.984209 
	C205.800034,32.309769 204.339905,32.635330 202.070160,32.991600 
	C184.226395,36.465588 167.255219,42.572880 150.995529,50.558556 
	C133.288742,59.254944 117.318947,70.552818 102.393677,84.067398 
	C101.903145,84.371574 101.412605,84.675758 100.994652,84.999962 
	C100.994652,84.999962 101.014656,84.927376 100.496964,85.111382 
	C100.305824,85.413322 100.114685,85.715263 100.016350,86.016914 
	C100.016350,86.016914 100.016075,85.924118 99.492592,86.104294 
	C99.301613,86.409126 99.110641,86.713966 99.018036,87.018669 
	C99.018036,87.018669 99.017921,86.920296 98.494675,87.104309 
	C98.302422,87.409607 98.110161,87.714905 98.019081,88.021141 
	C98.019081,88.021141 98.020050,87.919968 97.510971,88.123718 
	C97.313705,88.422920 97.116440,88.722122 97.020004,89.020676 
	C97.020004,89.020676 97.019363,88.919861 96.503815,89.116669 
	C96.308174,89.418663 96.112534,89.720657 96.023186,90.025963 
	C96.023186,90.025963 96.026512,89.919685 95.506790,90.113075 
	C95.290985,90.405861 95.075180,90.698647 94.454247,91.128113 
	C94.195869,91.292557 94.046524,91.526581 93.430717,92.121986 
	C92.581161,93.070793 91.731606,94.019608 90.974648,95.008652 
	C90.974648,95.008652 91.014877,94.916054 90.483360,95.089157 
	C90.294304,95.398224 90.105247,95.707291 90.016190,96.021492 
	C90.016190,96.021492 90.021347,95.921494 89.486168,96.086823 
	C89.274826,96.386078 89.063484,96.685333 88.260590,97.299614 
	C82.343544,104.518639 75.976776,111.423126 70.642654,119.049843 
	C65.820778,125.944153 62.127064,133.627502 57.224865,141.035736 
	C55.109825,144.684814 52.994785,148.333893 50.957653,151.981842 
	C50.957653,151.981842 50.956501,151.903931 50.364529,152.243271 
	C49.879803,153.499619 49.395081,154.755981 48.984562,155.997253 
	C48.984562,155.997253 48.969479,155.923050 48.369785,156.305008 
	C47.509968,158.533386 46.650154,160.761749 45.219326,163.391464 
	C43.122643,169.573486 40.929108,175.724777 38.955708,181.945908 
	C36.857937,188.559097 34.495117,195.141281 33.105450,201.912964 
	C31.263620,210.887955 30.034388,220.007599 28.952274,229.113846 
	C28.014324,237.006912 27.147640,244.969193 27.167839,252.898544 
	C27.188742,261.104706 27.793276,269.391296 29.084902,277.492493 
	C30.878147,288.739868 33.550030,299.847137 35.949440,311.811218 
	C36.961452,314.927643 37.973461,318.044067 39.026703,321.560974 
	C39.026703,321.560974 39.160957,321.940521 39.072556,322.588440 
	C39.379494,323.112396 39.686432,323.636383 40.035042,324.535797 
	C40.035042,324.535797 40.163464,324.891022 40.065907,325.591217 
	C40.698112,326.770844 41.330318,327.950470 41.991596,329.894318 
	C42.115894,330.532349 42.143654,331.208557 42.378487,331.802917 
	C50.073299,351.279022 59.997467,369.500000 73.268173,386.626343 
	C73.756432,387.462524 74.103462,388.433685 74.754173,389.114624 
	C83.929619,398.715698 92.690857,408.772430 102.446220,417.747253 
	C123.912666,437.496155 148.487213,452.428772 176.276276,461.509369 
	C188.220261,465.412354 200.624222,467.907593 213.241501,471.704529 
	C214.519684,471.704529 215.797882,471.704529 217.707916,471.828339 
	C218.132263,471.892059 218.556595,471.955780 219.310135,472.705902 
	C220.560120,472.710144 221.810089,472.714386 223.870331,472.822205 
	C225.228989,472.880585 226.587631,472.938934 228.290878,473.696045 
	C229.563721,473.708313 230.836563,473.720581 232.898636,473.824860 
	C234.220428,473.793243 235.542221,473.761627 237.660690,473.939606 
	C238.475586,473.872009 239.290466,473.804382 240.721725,473.845428 
	C241.136200,473.814636 241.550674,473.783875 242.471024,473.920654 
	C242.643021,473.876190 242.815002,473.831757 243.697281,473.910309 
	C244.167480,473.989075 244.637665,474.067871 245.400513,474.749054 
	C246.284821,474.754761 247.169144,474.760468 248.861420,474.855865 
	C250.213547,474.826233 251.565659,474.796600 253.721970,474.958221 
	C255.846863,474.565216 257.971741,474.172180 260.998505,473.863708 
	C264.623413,473.825562 268.248291,473.787415 272.519928,473.951996 
	C273.032410,473.635986 273.544891,473.320007 274.860565,472.889954 
	C276.210175,472.834412 277.559814,472.778870 279.492096,472.899780 
	C279.687653,472.845551 279.883209,472.791290 280.679871,472.841858 
	C281.083832,472.808533 281.487823,472.775208 282.434601,472.872589 
	C282.631744,472.581299 282.828888,472.290009 283.791718,471.893433 
	C284.820557,471.852112 285.849426,471.810760 287.534698,471.979523 
	C288.081665,471.673065 288.628601,471.366638 290.003357,471.009003 
	C292.089355,470.670990 294.256470,470.588074 296.248444,469.954468 
	C311.779297,465.014191 327.606567,460.789642 342.692871,454.727661 
	C358.366821,448.429596 373.149139,440.004120 386.090271,428.879822 
	C396.333069,420.075073 406.567017,411.231018 416.317719,401.895599 
	C420.852875,397.553619 424.232086,392.004303 428.640686,386.834320 
	C429.020630,386.258667 429.400543,385.683014 430.086334,384.474152 
	C441.194031,369.908905 450.608337,354.380249 457.628479,336.735107 
	C458.458496,334.156586 459.288483,331.578064 460.032288,329.008850 
	C460.032288,329.008850 460.041656,329.095062 460.631927,328.738861 
	C461.035187,327.462952 461.438477,326.187073 461.973541,324.548676 
	C461.973541,324.548676 462.029877,324.167114 462.519836,323.930237 
	C462.634613,323.609375 462.749390,323.288483 462.980835,322.346100 
	C463.009918,321.925507 463.039001,321.504883 463.587738,320.754547 
	C463.667938,320.164520 463.748138,319.574524 464.184021,318.309875 
	C464.450165,317.714294 464.824036,317.143341 464.966370,316.519501 
	C467.588165,305.029358 470.182251,293.532898 472.929596,281.165161 
	C472.901215,279.105072 472.872833,277.044983 472.966888,274.587067 
	C472.966888,274.587067 473.003693,274.172455 473.677002,273.601654 
	C473.391266,256.406250 473.105530,239.210846 472.912292,221.382904 
	C472.886169,220.958466 472.860016,220.534042 472.890015,219.529083 
	C472.599274,219.287292 472.308502,219.045486 471.995544,217.962143 
	C471.907043,216.474548 471.979523,214.956604 471.705597,213.503967 
	C468.284332,195.360748 463.775452,177.421265 455.646179,160.847046 
	C448.924164,147.141968 440.496948,134.273239 432.736328,120.402618 
	C431.728912,119.074631 430.721497,117.746651 429.654266,116.384224 
	C429.654266,116.384224 429.622650,116.445595 429.265228,115.883865 
	C428.499420,114.894302 427.733582,113.904739 426.853119,112.478210 
	C426.683563,112.204224 426.440033,112.039803 425.885284,111.494041 
	C425.583374,111.303848 425.281464,111.113647 424.983246,111.016998 
z"/>
<path fill="#6F913D" opacity="1.000000" stroke="none" 
	d="
M72.959572,386.005554 
	C59.997467,369.500000 50.073299,351.279022 42.378487,331.802917 
	C42.143654,331.208557 42.115894,330.532349 41.940323,329.172089 
	C41.313850,327.263580 40.738655,326.077301 40.163460,324.891022 
	C40.163464,324.891022 40.035042,324.535797 39.926483,324.064514 
	C39.598938,323.042358 39.379951,322.491425 39.160957,321.940521 
	C39.160957,321.940521 39.026703,321.560974 39.061073,321.015717 
	C38.012218,317.318451 36.928993,314.166412 35.845764,311.014404 
	C33.550030,299.847137 30.878147,288.739868 29.084902,277.492493 
	C27.793276,269.391296 27.188742,261.104706 27.167839,252.898544 
	C27.147640,244.969193 28.014324,237.006912 28.952274,229.113846 
	C30.034388,220.007599 31.263620,210.887955 33.105450,201.912964 
	C34.495117,195.141281 36.857937,188.559097 38.955708,181.945908 
	C40.929108,175.724777 43.122643,169.573486 45.796356,162.978302 
	C47.238747,160.351105 48.104111,158.137070 48.969475,155.923050 
	C48.969479,155.923050 48.984562,155.997253 49.201221,155.780609 
	C49.930756,154.343948 50.443630,153.123947 50.956501,151.903931 
	C50.956501,151.903931 50.957653,151.981842 51.229561,151.834625 
	C53.646263,148.112579 55.791061,144.537750 57.935860,140.962921 
	C62.127064,133.627502 65.820778,125.944153 70.642654,119.049843 
	C75.976776,111.423126 82.343544,104.518639 88.758636,96.972626 
	C89.511574,96.404266 89.766464,96.162880 90.021347,95.921494 
	C90.021347,95.921494 90.016190,96.021492 90.157669,95.844025 
	C90.537720,95.416382 90.776299,95.166214 91.014877,94.916054 
	C91.014877,94.916054 90.974648,95.008652 91.246658,94.881401 
	C92.347855,93.779495 93.177025,92.804840 94.006210,91.830185 
	C94.046524,91.526581 94.195869,91.292557 94.856796,90.887115 
	C95.515060,90.403976 95.770790,90.161835 96.026520,89.919693 
	C96.026512,89.919685 96.023186,90.025963 96.158989,89.845573 
	C96.536316,89.416740 96.777840,89.168297 97.019363,88.919861 
	C97.019363,88.919861 97.020004,89.020676 97.159332,88.843163 
	C97.539124,88.417084 97.779579,88.168526 98.020050,87.919968 
	C98.020050,87.919968 98.019081,88.021141 98.158722,87.843948 
	C98.538208,87.417938 98.778069,87.169121 99.017929,86.920303 
	C99.017921,86.920296 99.018036,87.018669 99.159134,86.843887 
	C99.538849,86.420776 99.777466,86.172447 100.016075,85.924118 
	C100.016075,85.924118 100.016350,86.016914 100.160553,85.844246 
	C100.541389,85.423515 100.778030,85.175446 101.014664,84.927383 
	C101.014656,84.927376 100.994652,84.999962 101.227577,84.909607 
	C101.978767,84.602379 102.497040,84.385490 103.015305,84.168610 
	C117.318947,70.552818 133.288742,59.254944 150.995529,50.558556 
	C167.255219,42.572880 184.226395,36.465588 202.857971,32.967464 
	C205.115051,32.609444 206.584351,32.275558 208.053635,31.941677 
	C208.053635,31.941677 207.999084,32.018383 208.408508,31.997736 
	C219.220734,30.697685 229.623535,29.418280 240.026321,28.138876 
	C270.428528,26.106962 299.965363,30.379530 328.435059,41.109650 
	C337.982574,44.708065 347.274017,49.229206 356.179810,54.224789 
	C367.129333,60.366787 377.596863,67.378166 388.166748,74.178482 
	C390.310120,75.557457 391.920227,77.741341 393.883148,79.429756 
	C398.121307,83.075188 402.428864,86.639915 407.029449,90.739738 
	C407.593994,91.500061 407.837097,91.758293 408.080231,92.016525 
	C408.080231,92.016525 407.983368,92.011330 408.159088,92.155235 
	C408.585480,92.536102 408.836151,92.773071 409.086853,93.010040 
	C409.086853,93.010033 408.990021,93.011154 409.161682,93.155319 
	C409.583618,93.536133 409.833893,93.772797 410.084137,94.009460 
	C410.084137,94.009460 409.989349,94.008942 410.161163,94.155487 
	C410.585052,94.537865 410.837128,94.773705 411.089233,95.009537 
	C411.089233,95.009537 410.992432,95.015038 411.163544,95.158295 
	C411.585663,95.538719 411.836670,95.775879 412.087677,96.013031 
	C412.087677,96.013031 412.010193,95.980469 412.066589,96.306435 
	C414.117615,98.745712 416.112213,100.859024 418.106812,102.972336 
	C418.106812,102.972343 418.016418,103.003571 418.174255,103.151680 
	C418.583374,103.537369 418.834625,103.774948 419.085876,104.012527 
	C419.085876,104.012527 418.986481,104.013481 419.159149,104.157059 
	C419.583038,104.537872 419.834290,104.775116 420.085541,105.012360 
	C420.085541,105.012360 419.985596,105.017021 420.162720,105.155975 
	C420.598755,105.526070 420.857635,105.757217 421.116547,105.988365 
	C421.429199,106.041458 421.672546,106.200554 422.010010,106.987236 
	C422.810516,108.340126 423.447571,109.171432 424.084625,110.002747 
	C424.084625,110.002747 423.995667,110.011841 424.163025,110.159294 
	C424.579193,110.542290 424.827972,110.777824 425.076782,111.013359 
	C425.076782,111.013359 424.983246,111.016998 425.162231,111.158035 
	C425.601654,111.527702 425.862091,111.756332 426.122528,111.984970 
	C426.440033,112.039803 426.683563,112.204224 426.966125,113.033279 
	C427.926971,114.540756 428.774811,115.493172 429.622650,116.445587 
	C429.622650,116.445595 429.654266,116.384224 429.686829,116.759033 
	C430.754700,118.433868 431.789978,119.733910 432.825256,121.033943 
	C440.496948,134.273239 448.924164,147.141968 455.646179,160.847046 
	C463.775452,177.421265 468.284332,195.360748 471.705597,213.503967 
	C471.979523,214.956604 471.907043,216.474548 472.121338,218.613510 
	C472.442719,219.546448 472.638306,219.828033 472.833893,220.109619 
	C472.860016,220.534042 472.886169,220.958466 472.751831,222.075287 
	C472.440521,224.086334 472.140320,225.407394 472.161407,226.723312 
	C472.414581,242.540131 472.715363,258.356201 473.003662,274.172455 
	C473.003693,274.172455 472.966888,274.587067 472.789001,275.106445 
	C472.668182,277.763153 472.725189,279.900452 472.782166,282.037750 
	C470.182251,293.532898 467.588165,305.029358 464.966370,316.519501 
	C464.824036,317.143341 464.450165,317.714294 463.855652,318.781860 
	C463.374268,319.864014 463.221191,320.474152 463.068115,321.084290 
	C463.039001,321.504883 463.009918,321.925507 462.773071,322.850220 
	C462.375610,323.617920 462.197144,323.888824 462.029877,324.167114 
	C462.029877,324.167114 461.973541,324.548676 461.676453,324.970032 
	C460.933441,326.625916 460.487549,327.860474 460.041626,329.095062 
	C460.041656,329.095062 460.032288,329.008850 459.801941,329.231445 
	C458.719604,332.016296 457.867615,334.578552 457.015625,337.140808 
	C450.608337,354.380249 441.194031,369.908905 429.677063,384.716003 
	C428.678284,384.567047 428.088806,384.176270 427.379395,383.429871 
	C425.668121,379.806244 424.321655,376.389343 422.441742,373.296722 
	C415.480621,361.845123 409.040619,360.527466 397.908569,367.698608 
	C395.779358,362.116455 394.366852,356.566376 391.655243,351.747223 
	C385.992584,341.683380 375.429840,339.996063 365.788635,347.233398 
	C364.754608,347.908356 363.941711,348.401917 363.031006,348.526489 
	C361.259644,342.593018 360.096069,336.804871 357.779602,331.522278 
	C355.065887,325.333801 352.005402,319.076843 347.900360,313.774872 
	C342.776001,307.156464 336.074249,307.133026 330.318970,313.183350 
	C326.698517,316.989380 323.993073,321.667419 320.892456,325.965271 
	C320.023682,327.169525 319.209076,328.412872 318.076538,330.066101 
	C315.197021,318.899780 313.156158,308.455200 309.730286,298.486603 
	C306.896851,290.241974 303.283539,281.988251 298.467041,274.772369 
	C292.426422,265.722534 284.628906,265.632660 276.426025,272.886017 
	C275.142334,274.021118 273.745239,275.027954 271.245941,277.009521 
	C271.245941,274.167480 271.079254,272.760590 271.273285,271.405334 
	C272.448090,263.198792 273.430939,254.950256 275.024658,246.822937 
	C276.225677,240.698273 278.244415,234.733963 280.268738,228.677460 
	C284.550232,227.248489 288.524780,225.992142 292.363495,224.406815 
	C312.845337,215.948090 331.506989,204.741226 344.611237,186.365662 
	C358.929901,166.287125 362.661407,143.036819 362.959839,119.008003 
	C363.028625,113.470222 362.083893,112.483894 356.440125,113.118942 
	C340.395294,114.924339 324.921326,118.841118 311.172607,127.685188 
	C290.484924,140.992783 279.263947,160.787506 273.983673,184.192078 
	C271.464691,195.357224 269.066193,206.722717 272.386353,218.674255 
	C270.920013,225.814667 269.440979,232.533295 267.961914,239.251907 
	C267.506531,239.285873 267.051147,239.319824 266.595795,239.353775 
	C264.746674,231.571777 262.897583,223.789764 261.223694,215.668182 
	C265.263153,201.077759 264.911011,186.481827 263.422302,172.116974 
	C259.634827,135.570099 239.358948,110.205521 207.626663,93.170044 
	C181.255890,79.012894 152.764618,76.701332 123.617104,78.275017 
	C118.279167,78.563217 117.006783,80.221413 118.418610,85.980606 
	C121.825912,99.879852 124.902664,113.929474 129.462234,127.463814 
	C142.791626,167.029907 168.742981,195.453003 207.168411,212.045090 
	C222.049240,218.470612 237.539017,223.032364 254.084183,224.227966 
	C260.288513,242.424194 264.225159,274.143219 260.678009,278.047058 
	C259.744507,276.179230 259.030609,274.293854 257.944000,272.655762 
	C253.268906,265.607788 249.221069,257.951447 243.544815,251.810745 
	C237.103195,244.842072 228.753616,244.946854 223.092087,252.860825 
	C220.023193,257.150635 217.447906,261.921265 215.417099,266.794647 
	C212.699570,273.316010 210.725983,280.147369 208.285019,287.277710 
	C205.788864,285.000671 203.698410,282.892181 201.404510,281.034912 
	C189.159836,271.120728 178.074295,272.212097 171.856339,290.118347 
	C168.742126,299.086548 167.145248,308.581665 164.800812,318.086975 
	C162.626114,316.298401 160.255386,314.308777 157.842468,312.371643 
	C150.855713,306.762634 139.266006,307.001709 134.867142,317.384338 
	C132.099548,323.916718 130.119568,330.793213 127.977921,337.575806 
	C126.968941,340.771240 126.410995,344.109070 125.622749,347.493652 
	C123.014099,346.742920 121.231255,346.337463 119.524445,345.721344 
	C107.666351,341.441132 97.085892,343.817566 89.266083,353.152985 
	C81.584137,362.323822 77.980530,373.348602 75.901054,385.133942 
	C75.751839,385.277679 75.514046,385.617035 75.189636,385.619080 
	C74.230003,385.749268 73.594788,385.877411 72.959572,386.005554 
z"/>
<path fill="#C0E063" opacity="1.000000" stroke="none" 
	d="
M73.113876,386.315948 
	C73.594788,385.877411 74.230003,385.749268 75.694046,385.684204 
	C116.353195,385.800079 156.183517,385.852844 196.379700,385.885010 
	C197.232742,385.807037 197.719955,385.749664 198.557312,385.707397 
	C199.607727,385.754517 200.307968,385.786499 201.473984,385.857666 
	C268.306122,385.901123 334.672516,385.905365 401.504700,385.930786 
	C403.957001,385.971893 405.946075,385.933228 407.929443,386.022278 
	C414.665802,386.324615 421.400177,386.672058 428.135254,387.002258 
	C424.232086,392.004303 420.852875,397.553619 416.317719,401.895599 
	C406.567017,411.231018 396.333069,420.075073 386.090271,428.879822 
	C373.149139,440.004120 358.366821,448.429596 342.692871,454.727661 
	C327.606567,460.789642 311.779297,465.014191 296.248444,469.954468 
	C294.256470,470.588074 292.089355,470.670990 289.289337,471.077515 
	C288.009613,471.353851 287.443939,471.561615 286.878265,471.769409 
	C285.849426,471.810760 284.820557,471.852112 283.179443,471.998169 
	C282.276825,472.246948 282.051697,472.459930 281.891785,472.741882 
	C281.487823,472.775208 281.083832,472.808533 280.251221,472.679382 
	C279.518188,472.585724 279.213806,472.654510 278.909424,472.723328 
	C277.559814,472.778870 276.210175,472.834412 274.165283,472.967896 
	C272.937744,473.280304 272.405457,473.514771 271.873199,473.749268 
	C268.248291,473.787415 264.623413,473.825562 260.223511,473.696167 
	C257.271576,473.941406 255.094681,474.354156 252.917786,474.766907 
	C251.565659,474.796600 250.213547,474.826233 248.177704,474.678589 
	C246.698608,474.383118 245.903244,474.264862 245.107864,474.146606 
	C244.637665,474.067871 244.167480,473.989075 243.237213,473.742493 
	C242.461533,473.453735 242.190857,473.513184 241.965149,473.753082 
	C241.550674,473.783875 241.136200,473.814636 240.164459,473.646820 
	C238.692795,473.542145 237.778397,473.636078 236.864014,473.730011 
	C235.542221,473.761627 234.220428,473.793243 232.274261,473.610962 
	C230.415359,473.263824 229.180832,473.130554 227.946289,472.997314 
	C226.587631,472.938934 225.228989,472.880585 223.155518,472.606079 
	C221.287460,472.266510 220.134201,472.143005 218.980942,472.019501 
	C218.556595,471.955780 218.132263,471.892059 217.062347,471.618011 
	C215.217606,471.285919 214.018402,471.164154 212.819214,471.042419 
	C200.624222,467.907593 188.220261,465.412354 176.276276,461.509369 
	C148.487213,452.428772 123.912666,437.496155 102.446220,417.747253 
	C92.690857,408.772430 83.929619,398.715698 74.754173,389.114624 
	C74.103462,388.433685 73.756432,387.462524 73.113876,386.315948 
z"/>
<path fill="#72864E" opacity="1.000000" stroke="none" 
	d="
M473.340332,273.887054 
	C472.715363,258.356201 472.414581,242.540131 472.161407,226.723312 
	C472.140320,225.407394 472.440521,224.086334 472.705627,222.391541 
	C473.105530,239.210846 473.391266,256.406250 473.340332,273.887054 
z"/>
<path fill="#73884D" opacity="1.000000" stroke="none" 
	d="
M239.560562,28.084202 
	C229.623535,29.418280 219.220734,30.697685 208.370148,31.970459 
	C218.313171,30.652397 228.703995,29.340963 239.560562,28.084202 
z"/>
<path fill="#90C64E" opacity="1.000000" stroke="none" 
	d="
M428.388000,386.918274 
	C421.400177,386.672058 414.665802,386.324615 407.929443,386.022278 
	C405.946075,385.933228 403.957001,385.971893 401.491333,385.707581 
	C401.012146,385.463165 400.989227,385.015717 401.458527,385.009857 
	C410.451660,384.597839 418.975494,384.191681 427.499329,383.785492 
	C428.088806,384.176270 428.678284,384.567047 429.524109,385.032593 
	C429.400543,385.683014 429.020630,386.258667 428.388000,386.918274 
z"/>
<path fill="#748B50" opacity="1.000000" stroke="none" 
	d="
M57.580360,140.999329 
	C55.791061,144.537750 53.646263,148.112579 51.190609,151.835190 
	C52.994785,148.333893 55.109825,144.684814 57.580360,140.999329 
z"/>
<path fill="#71864E" opacity="1.000000" stroke="none" 
	d="
M418.047089,102.629303 
	C416.112213,100.859024 414.117615,98.745712 412.082916,96.267700 
	C414.024353,98.030754 416.005859,100.158516 418.047089,102.629303 
z"/>
<path fill="#738C4F" opacity="1.000000" stroke="none" 
	d="
M35.897602,311.412811 
	C36.928993,314.166412 38.012218,317.318451 39.040459,320.815491 
	C37.973461,318.044067 36.961452,314.927643 35.897602,311.412811 
z"/>
<path fill="#738A4D" opacity="1.000000" stroke="none" 
	d="
M457.322052,336.937958 
	C457.867615,334.578552 458.719604,332.016296 459.845032,329.226807 
	C459.288483,331.578064 458.458496,334.156586 457.322052,336.937958 
z"/>
<path fill="#748B50" opacity="1.000000" stroke="none" 
	d="
M48.669632,156.114029 
	C48.104111,158.137070 47.238747,160.351105 46.081860,162.777618 
	C46.650154,160.761749 47.509968,158.533386 48.669632,156.114029 
z"/>
<path fill="#99AE5C" opacity="1.000000" stroke="none" 
	d="
M253.319885,474.862549 
	C255.094681,474.354156 257.271576,473.941406 259.772583,473.653931 
	C257.971741,474.172180 255.846863,474.565216 253.319885,474.862549 
z"/>
<path fill="#71864E" opacity="1.000000" stroke="none" 
	d="
M432.780792,120.718285 
	C431.789978,119.733910 430.754700,118.433868 429.716736,116.776245 
	C430.721497,117.746651 431.728912,119.074631 432.780792,120.718285 
z"/>
<path fill="#72864E" opacity="1.000000" stroke="none" 
	d="
M472.855896,281.601440 
	C472.725189,279.900452 472.668182,277.763153 472.727783,275.305359 
	C472.872833,277.044983 472.901215,279.105072 472.855896,281.601440 
z"/>
<path fill="#738A4D" opacity="1.000000" stroke="none" 
	d="
M460.336792,328.916962 
	C460.487549,327.860474 460.933441,326.625916 461.610565,325.151245 
	C461.438477,326.187073 461.035187,327.462952 460.336792,328.916962 
z"/>
<path fill="#738C4F" opacity="1.000000" stroke="none" 
	d="
M40.114681,325.241119 
	C40.738655,326.077301 41.313850,327.263580 41.925785,328.789978 
	C41.330318,327.950470 40.698112,326.770844 40.114681,325.241119 
z"/>
<path fill="#748950" opacity="1.000000" stroke="none" 
	d="
M93.718460,91.976082 
	C93.177025,92.804840 92.347855,93.779495 91.200363,94.861282 
	C91.731606,94.019608 92.581161,93.070793 93.718460,91.976082 
z"/>
<path fill="#71864E" opacity="1.000000" stroke="none" 
	d="
M429.443939,116.164726 
	C428.774811,115.493172 427.926971,114.540756 427.023438,113.251762 
	C427.733582,113.904739 428.499420,114.894302 429.443939,116.164726 
z"/>
<path fill="#748B50" opacity="1.000000" stroke="none" 
	d="
M50.660515,152.073608 
	C50.443630,153.123947 49.930756,154.343948 49.164116,155.788147 
	C49.395081,154.755981 49.879803,153.499619 50.660515,152.073608 
z"/>
<path fill="#99AE5C" opacity="1.000000" stroke="none" 
	d="
M228.118591,473.346680 
	C229.180832,473.130554 230.415359,473.263824 231.879654,473.564941 
	C230.836563,473.720581 229.563721,473.708313 228.118591,473.346680 
z"/>
<path fill="#73884D" opacity="1.000000" stroke="none" 
	d="
M207.656906,31.962942 
	C206.584351,32.275558 205.115051,32.609444 203.262756,32.952110 
	C204.339905,32.635330 205.800034,32.309769 207.656906,31.962942 
z"/>
<path fill="#71864E" opacity="1.000000" stroke="none" 
	d="
M424.022827,109.675644 
	C423.447571,109.171432 422.810516,108.340126 422.080872,107.198853 
	C422.645874,107.708763 423.303467,108.528656 424.022827,109.675644 
z"/>
<path fill="#99AE5C" opacity="1.000000" stroke="none" 
	d="
M213.030365,471.373474 
	C214.018402,471.164154 215.217606,471.285919 216.746429,471.556091 
	C215.797882,471.704529 214.519684,471.704529 213.030365,471.373474 
z"/>
<path fill="#99AE5C" opacity="1.000000" stroke="none" 
	d="
M219.145538,472.362701 
	C220.134201,472.143005 221.287460,472.266510 222.750397,472.554321 
	C221.810089,472.714386 220.560120,472.710144 219.145538,472.362701 
z"/>
<path fill="#738A4D" opacity="1.000000" stroke="none" 
	d="
M463.327942,320.919434 
	C463.221191,320.474152 463.374268,319.864014 463.677795,319.119202 
	C463.748138,319.574524 463.667938,320.164520 463.327942,320.919434 
z"/>
<path fill="#99AE5C" opacity="1.000000" stroke="none" 
	d="
M237.262360,473.834808 
	C237.778397,473.636078 238.692795,473.542145 239.856262,473.592499 
	C239.290466,473.804382 238.475586,473.872009 237.262360,473.834808 
z"/>
<path fill="#99AE5C" opacity="1.000000" stroke="none" 
	d="
M245.254181,474.447815 
	C245.903244,474.264862 246.698608,474.383118 247.773712,474.633728 
	C247.169144,474.760468 246.284821,474.754761 245.254181,474.447815 
z"/>
<path fill="#99AE5C" opacity="1.000000" stroke="none" 
	d="
M272.196564,473.850616 
	C272.405457,473.514771 272.937744,473.280304 273.763672,473.024902 
	C273.544891,473.320007 273.032410,473.635986 272.196564,473.850616 
z"/>
<path fill="#738C4F" opacity="1.000000" stroke="none" 
	d="
M39.116760,322.264465 
	C39.379951,322.491425 39.598938,323.042358 39.905651,323.876801 
	C39.686432,323.636383 39.379494,323.112396 39.116760,322.264465 
z"/>
<path fill="#99AE5C" opacity="1.000000" stroke="none" 
	d="
M287.206482,471.874451 
	C287.443939,471.561615 288.009613,471.353851 288.875427,471.103149 
	C288.628601,471.366638 288.081665,471.673065 287.206482,471.874451 
z"/>
<path fill="#748950" opacity="1.000000" stroke="none" 
	d="
M102.704491,84.118004 
	C102.497040,84.385490 101.978767,84.602379 101.191284,84.899597 
	C101.412605,84.675758 101.903145,84.371574 102.704491,84.118004 
z"/>
<path fill="#748950" opacity="1.000000" stroke="none" 
	d="
M100.755814,85.019379 
	C100.778030,85.175446 100.541389,85.423515 100.114151,85.844391 
	C100.114685,85.715263 100.305824,85.413322 100.755814,85.019379 
z"/>
<path fill="#71864E" opacity="1.000000" stroke="none" 
	d="
M409.001251,92.744232 
	C408.836151,92.773071 408.585480,92.536102 408.161682,92.106796 
	C408.297577,92.102455 408.606598,92.290443 409.001251,92.744232 
z"/>
<path fill="#71864E" opacity="1.000000" stroke="none" 
	d="
M409.999359,93.743759 
	C409.833893,93.772797 409.583618,93.536133 409.161072,93.106895 
	C409.297424,93.102234 409.605988,93.290154 409.999359,93.743759 
z"/>
<path fill="#99AE5C" opacity="1.000000" stroke="none" 
	d="
M242.218079,473.836853 
	C242.190857,473.513184 242.461533,473.453735 242.882065,473.681000 
	C242.815002,473.831757 242.643021,473.876190 242.218079,473.836853 
z"/>
<path fill="#71864E" opacity="1.000000" stroke="none" 
	d="
M411.006226,94.741547 
	C410.837128,94.773705 410.585052,94.537865 410.161407,94.108078 
	C410.300964,94.100601 410.612091,94.287071 411.006226,94.741547 
z"/>
<path fill="#99AE5C" opacity="1.000000" stroke="none" 
	d="
M282.163208,472.807220 
	C282.051697,472.459930 282.276825,472.246948 282.796631,472.050812 
	C282.828888,472.290009 282.631744,472.581299 282.163208,472.807220 
z"/>
<path fill="#99AE5C" opacity="1.000000" stroke="none" 
	d="
M279.200745,472.811554 
	C279.213806,472.654510 279.518188,472.585724 279.950684,472.626984 
	C279.883209,472.791290 279.687653,472.845551 279.200745,472.811554 
z"/>
<path fill="#748950" opacity="1.000000" stroke="none" 
	d="
M90.749115,95.002609 
	C90.776299,95.166214 90.537720,95.416382 90.107674,95.841454 
	C90.105247,95.707291 90.294304,95.398224 90.749115,95.002609 
z"/>
<path fill="#71864E" opacity="1.000000" stroke="none" 
	d="
M411.994507,95.752121 
	C411.836670,95.775879 411.585663,95.538719 411.160767,95.109894 
	C411.291718,95.109222 411.596527,95.300217 411.994507,95.752121 
z"/>
<path fill="#748950" opacity="1.000000" stroke="none" 
	d="
M89.753761,96.004166 
	C89.766464,96.162880 89.511574,96.404266 89.054413,96.815117 
	C89.063484,96.685333 89.274826,96.386078 89.753761,96.004166 
z"/>
<path fill="#71864E" opacity="1.000000" stroke="none" 
	d="
M418.991028,103.752823 
	C418.834625,103.774948 418.583374,103.537369 418.158691,103.106483 
	C418.288849,103.106491 418.592499,103.299805 418.991028,103.752823 
z"/>
<path fill="#748950" opacity="1.000000" stroke="none" 
	d="
M95.766655,90.016388 
	C95.770790,90.161835 95.515060,90.403976 95.059357,90.818779 
	C95.075180,90.698647 95.290985,90.405861 95.766655,90.016388 
z"/>
<path fill="#748950" opacity="1.000000" stroke="none" 
	d="
M99.754333,86.014206 
	C99.777466,86.172447 99.538849,86.420776 99.109955,86.843956 
	C99.110641,86.713966 99.301613,86.409126 99.754333,86.014206 
z"/>
<path fill="#71864E" opacity="1.000000" stroke="none" 
	d="
M419.991486,104.752274 
	C419.834290,104.775116 419.583038,104.537872 419.158630,104.107353 
	C419.289459,104.106781 419.593445,104.299484 419.991486,104.752274 
z"/>
<path fill="#748950" opacity="1.000000" stroke="none" 
	d="
M98.756302,87.012306 
	C98.778069,87.169121 98.538208,87.417938 98.108124,87.843475 
	C98.110161,87.714905 98.302422,87.409607 98.756302,87.012306 
z"/>
<path fill="#748950" opacity="1.000000" stroke="none" 
	d="
M97.765503,88.021835 
	C97.779579,88.168526 97.539124,88.417084 97.108917,88.843483 
	C97.116440,88.722122 97.313705,88.422920 97.765503,88.021835 
z"/>
<path fill="#71864E" opacity="1.000000" stroke="none" 
	d="
M421.008423,105.734573 
	C420.857635,105.757217 420.598755,105.526070 420.160370,105.106018 
	C420.287354,105.104996 420.593811,105.292892 421.008423,105.734573 
z"/>
<path fill="#71864E" opacity="1.000000" stroke="none" 
	d="
M424.977234,110.760269 
	C424.827972,110.777824 424.579193,110.542290 424.158447,110.114822 
	C424.283569,110.117653 424.580597,110.312408 424.977234,110.760269 
z"/>
<path fill="#71864E" opacity="1.000000" stroke="none" 
	d="
M426.003906,111.739502 
	C425.862091,111.756332 425.601654,111.527702 425.160400,111.111267 
	C425.281464,111.113647 425.583374,111.303848 426.003906,111.739502 
z"/>
<path fill="#738A4D" opacity="1.000000" stroke="none" 
	d="
M462.274841,324.048676 
	C462.197144,323.888824 462.375610,323.617920 462.714722,323.161011 
	C462.749390,323.288483 462.634613,323.609375 462.274841,324.048676 
z"/>
<path fill="#71864E" opacity="1.000000" stroke="none" 
	d="
M407.998352,91.746727 
	C407.837097,91.758293 407.593994,91.500061 407.186066,91.032074 
	C407.319672,91.040520 407.618073,91.258728 407.998352,91.746727 
z"/>
<path fill="#72864E" opacity="1.000000" stroke="none" 
	d="
M472.861938,219.819351 
	C472.638306,219.828033 472.442719,219.546448 472.132446,219.034286 
	C472.308502,219.045486 472.599274,219.287292 472.861938,219.819351 
z"/>
<path fill="#748950" opacity="1.000000" stroke="none" 
	d="
M96.761581,89.018265 
	C96.777840,89.168297 96.536316,89.416740 96.105850,89.843918 
	C96.112534,89.720657 96.308174,89.418663 96.761581,89.018265 
z"/>
<path fill="#BFE063" opacity="1.000000" stroke="none" 
	d="
M261.048462,216.007767 
	C262.897583,223.789764 264.746674,231.571777 266.595795,239.353775 
	C267.051147,239.319824 267.506531,239.285873 267.961914,239.251907 
	C269.440979,232.533295 270.920013,225.814667 272.632904,218.444489 
	C274.213715,214.953003 275.697327,212.168930 276.885742,209.264099 
	C285.024017,189.370880 295.539734,171.027252 311.288239,156.062469 
	C313.367279,154.086899 315.704559,151.610260 318.540710,154.210190 
	C321.474274,156.899445 318.910492,159.254471 317.138641,161.476898 
	C311.129333,169.014359 304.630371,176.228683 299.285828,184.213898 
	C290.186005,197.809875 282.879364,212.355225 279.899139,228.698257 
	C278.244415,234.733963 276.225677,240.698273 275.024658,246.822937 
	C273.430939,254.950256 272.448090,263.198792 271.273285,271.405334 
	C271.079254,272.760590 271.245941,274.167480 271.245941,277.009521 
	C273.745239,275.027954 275.142334,274.021118 276.426025,272.886017 
	C284.628906,265.632660 292.426422,265.722534 298.467041,274.772369 
	C303.283539,281.988251 306.896851,290.241974 309.730286,298.486603 
	C313.156158,308.455200 315.197021,318.899780 318.076538,330.066101 
	C319.209076,328.412872 320.023682,327.169525 320.892456,325.965271 
	C323.993073,321.667419 326.698517,316.989380 330.318970,313.183350 
	C336.074249,307.133026 342.776001,307.156464 347.900360,313.774872 
	C352.005402,319.076843 355.065887,325.333801 357.779602,331.522278 
	C360.096069,336.804871 361.259644,342.593018 362.831451,348.807251 
	C360.766144,351.244354 358.629761,352.878662 356.879517,354.854950 
	C354.240356,357.834961 352.791687,357.517090 350.595490,354.093567 
	C347.031769,348.538239 343.231659,342.963135 338.622711,338.293091 
	C332.846802,332.440674 323.246735,333.984650 318.908295,340.900421 
	C316.797516,344.265076 315.253296,347.985046 313.450623,351.543182 
	C310.693726,356.984650 310.421875,357.026184 305.514801,353.675568 
	C303.319977,352.176941 301.091614,350.678009 298.721008,349.494781 
	C287.856445,344.071899 279.136719,347.095001 274.136017,358.017151 
	C273.390747,359.644897 273.150543,361.513611 272.750702,363.287567 
	C272.160492,365.906067 270.876129,366.612152 268.475983,365.127441 
	C266.359497,363.818146 264.221588,362.495728 261.958313,361.479462 
	C248.788528,355.565735 239.496780,360.257660 236.152954,374.423370 
	C234.547028,381.226746 234.556381,381.202057 228.004379,378.727661 
	C217.213882,374.652679 206.881134,374.033356 197.625854,383.038239 
	C196.895752,383.776581 196.399231,384.351807 195.440231,384.936401 
	C155.335251,384.960571 115.692757,384.975372 76.050270,384.990173 
	C77.980530,373.348602 81.584137,362.323822 89.266083,353.152985 
	C97.085892,343.817566 107.666351,341.441132 119.524445,345.721344 
	C121.231255,346.337463 123.014099,346.742920 125.622749,347.493652 
	C126.410995,344.109070 126.968941,340.771240 127.977921,337.575806 
	C130.119568,330.793213 132.099548,323.916718 134.867142,317.384338 
	C139.266006,307.001709 150.855713,306.762634 157.842468,312.371643 
	C160.255386,314.308777 162.626114,316.298401 164.800812,318.086975 
	C167.145248,308.581665 168.742126,299.086548 171.856339,290.118347 
	C178.074295,272.212097 189.159836,271.120728 201.404510,281.034912 
	C203.698410,282.892181 205.788864,285.000671 208.285019,287.277710 
	C210.725983,280.147369 212.699570,273.316010 215.417099,266.794647 
	C217.447906,261.921265 220.023193,257.150635 223.092087,252.860825 
	C228.753616,244.946854 237.103195,244.842072 243.544815,251.810745 
	C249.221069,257.951447 253.268906,265.607788 257.944000,272.655762 
	C259.030609,274.293854 259.744507,276.179230 260.678009,278.047058 
	C264.225159,274.143219 260.288513,242.424194 254.015274,223.882233 
	C249.813995,213.329514 246.389923,203.205902 241.821136,193.628357 
	C230.217026,169.302612 213.060516,149.762909 189.832703,135.783951 
	C187.265305,134.238831 184.393097,133.036148 182.225540,131.057541 
	C181.080978,130.012756 180.472519,127.429993 180.924973,125.936241 
	C181.204742,125.012489 183.912186,124.545341 185.570648,124.421989 
	C186.571579,124.347542 187.665085,125.296906 188.692596,125.832985 
	C213.064575,138.548615 231.221939,157.780426 244.831833,181.204529 
	C251.235382,192.225739 255.703369,204.371567 261.048462,216.007767 
z"/>
<path fill="#7FD856" opacity="1.000000" stroke="none" 
	d="
M261.223694,215.668182 
	C255.703369,204.371567 251.235382,192.225739 244.831833,181.204529 
	C231.221939,157.780426 213.064575,138.548615 188.692596,125.832985 
	C187.665085,125.296906 186.571579,124.347542 185.570648,124.421989 
	C183.912186,124.545341 181.204742,125.012489 180.924973,125.936241 
	C180.472519,127.429993 181.080978,130.012756 182.225540,131.057541 
	C184.393097,133.036148 187.265305,134.238831 189.832703,135.783951 
	C213.060516,149.762909 230.217026,169.302612 241.821136,193.628357 
	C246.389923,203.205902 249.813995,213.329514 253.828262,223.550171 
	C237.539017,223.032364 222.049240,218.470612 207.168411,212.045090 
	C168.742981,195.453003 142.791626,167.029907 129.462234,127.463814 
	C124.902664,113.929474 121.825912,99.879852 118.418610,85.980606 
	C117.006783,80.221413 118.279167,78.563217 123.617104,78.275017 
	C152.764618,76.701332 181.255890,79.012894 207.626663,93.170044 
	C239.358948,110.205521 259.634827,135.570099 263.422302,172.116974 
	C264.911011,186.481827 265.263153,201.077759 261.223694,215.668182 
z"/>
<path fill="#7FD956" opacity="1.000000" stroke="none" 
	d="
M197.859436,382.875122 
	C206.881134,374.033356 217.213882,374.652679 228.004379,378.727661 
	C234.556381,381.202057 234.547028,381.226746 236.152954,374.423370 
	C239.496780,360.257660 248.788528,355.565735 261.958313,361.479462 
	C264.221588,362.495728 266.359497,363.818146 268.475983,365.127441 
	C270.876129,366.612152 272.160492,365.906067 272.750702,363.287567 
	C273.150543,361.513611 273.390747,359.644897 274.136017,358.017151 
	C279.136719,347.095001 287.856445,344.071899 298.721008,349.494781 
	C301.091614,350.678009 303.319977,352.176941 305.514801,353.675568 
	C310.421875,357.026184 310.693726,356.984650 313.450623,351.543182 
	C315.253296,347.985046 316.797516,344.265076 318.908295,340.900421 
	C323.246735,333.984650 332.846802,332.440674 338.622711,338.293091 
	C343.231659,342.963135 347.031769,348.538239 350.595490,354.093567 
	C352.791687,357.517090 354.240356,357.834961 356.879517,354.854950 
	C358.629761,352.878662 360.766144,351.244354 362.929260,349.176208 
	C363.941711,348.401917 364.754608,347.908356 366.225769,347.227661 
	C377.156952,346.186859 383.281006,351.826447 387.488770,360.326263 
	C389.509430,364.408081 391.321716,368.593079 393.709930,373.776489 
	C395.577118,371.310425 396.807037,369.686066 398.036926,368.061676 
	C409.040619,360.527466 415.480621,361.845123 422.441742,373.296722 
	C424.321655,376.389343 425.668121,379.806244 427.379395,383.429871 
	C418.975494,384.191681 410.451660,384.597839 400.991119,385.002502 
	C336.171112,384.994202 272.287781,384.978088 208.404495,385.016083 
	C205.938919,385.017548 203.473633,385.539215 201.008209,385.818481 
	C200.307968,385.786499 199.607727,385.754517 198.511810,385.359070 
	C198.030563,384.288788 197.944992,383.581940 197.859436,382.875122 
z"/>
<path fill="#7FD857" opacity="1.000000" stroke="none" 
	d="
M280.268738,228.677460 
	C282.879364,212.355225 290.186005,197.809875 299.285828,184.213898 
	C304.630371,176.228683 311.129333,169.014359 317.138641,161.476898 
	C318.910492,159.254471 321.474274,156.899445 318.540710,154.210190 
	C315.704559,151.610260 313.367279,154.086899 311.288239,156.062469 
	C295.539734,171.027252 285.024017,189.370880 276.885742,209.264099 
	C275.697327,212.168930 274.213715,214.953003 272.620178,218.022720 
	C269.066193,206.722717 271.464691,195.357224 273.983673,184.192078 
	C279.263947,160.787506 290.484924,140.992783 311.172607,127.685188 
	C324.921326,118.841118 340.395294,114.924339 356.440125,113.118942 
	C362.083893,112.483894 363.028625,113.470222 362.959839,119.008003 
	C362.661407,143.036819 358.929901,166.287125 344.611237,186.365662 
	C331.506989,204.741226 312.845337,215.948090 292.363495,224.406815 
	C288.524780,225.992142 284.550232,227.248489 280.268738,228.677460 
z"/>
<path fill="#BAE066" opacity="1.000000" stroke="none" 
	d="
M397.908569,367.698608 
	C396.807037,369.686066 395.577118,371.310425 393.709930,373.776489 
	C391.321716,368.593079 389.509430,364.408081 387.488770,360.326263 
	C383.281006,351.826447 377.156952,346.186859 366.446960,347.046265 
	C375.429840,339.996063 385.992584,341.683380 391.655243,351.747223 
	C394.366852,356.566376 395.779358,362.116455 397.908569,367.698608 
z"/>
<path fill="#ADCD54" opacity="1.000000" stroke="none" 
	d="
M75.901054,385.133911 
	C115.692757,384.975372 155.335251,384.960571 195.470337,385.181091 
	C195.962952,385.416412 196.013855,385.905579 196.013855,385.905579 
	C156.183517,385.852844 116.353195,385.800079 76.018456,385.682190 
	C75.514046,385.617035 75.751839,385.277679 75.901054,385.133911 
z"/>
<path fill="#99D152" opacity="1.000000" stroke="none" 
	d="
M201.473984,385.857697 
	C203.473633,385.539215 205.938919,385.017548 208.404495,385.016083 
	C272.287781,384.978088 336.171112,384.994202 400.521820,385.008362 
	C400.989227,385.015717 401.012146,385.463165 401.025513,385.686371 
	C334.672516,385.905365 268.306122,385.901123 201.473984,385.857697 
z"/>
<path fill="#99D152" opacity="1.000000" stroke="none" 
	d="
M196.379700,385.885010 
	C196.013855,385.905579 195.962952,385.416412 195.932831,385.171722 
	C196.399231,384.351807 196.895752,383.776581 197.625854,383.038239 
	C197.944992,383.581940 198.030563,384.288788 198.161636,385.343933 
	C197.719955,385.749664 197.232742,385.807037 196.379700,385.885010 
z"/>
</svg>